<svg width="760" height="456" viewBox="0 0 760 456" xmlns="http://www.w3.org/2000/svg" role="img">
    <title>S0x2-dev GitHub Stats</title>

    <defs>
      <mask id="streak-ring-cut">
        <rect width="760" height="456" fill="white"/>
        <rect x="374" y="244" width="12" height="5" fill="black"/>
      </mask>
    </defs>

    <rect width="760" height="456" rx="10" fill="#171517" stroke="#212022" stroke-width="1"/>

    <rect x="16" y="16" width="454" height="188" rx="8" fill="#1d1b1d" stroke="#212022" stroke-width="0.5"/>
    <text x="32" y="44" font-family="-apple-system,BlinkMacSystemFont,'Segoe UI',sans-serif" font-size="15" font-weight="600" fill="#91a1f1">S0x2-dev's GitHub Stats</text>

    <text x="32" y="76" font-family="-apple-system,BlinkMacSystemFont,'Segoe UI',sans-serif" font-size="13" fill="#8c8c8c">Total Stars Earned:</text>
    <text x="260" y="76" font-family="-apple-system,BlinkMacSystemFont,'Segoe UI',sans-serif" font-size="13" font-weight="600" fill="#c8c8c8">4</text>

    <text x="32" y="100" font-family="-apple-system,BlinkMacSystemFont,'Segoe UI',sans-serif" font-size="13" fill="#8c8c8c">Total Commits (last year):</text>
    <text x="260" y="100" font-family="-apple-system,BlinkMacSystemFont,'Segoe UI',sans-serif" font-size="13" font-weight="600" fill="#c8c8c8">1.8k</text>

    <text x="32" y="124" font-family="-apple-system,BlinkMacSystemFont,'Segoe UI',sans-serif" font-size="13" fill="#8c8c8c">Total PRs:</text>
    <text x="260" y="124" font-family="-apple-system,BlinkMacSystemFont,'Segoe UI',sans-serif" font-size="13" font-weight="600" fill="#c8c8c8">6</text>

    <text x="32" y="148" font-family="-apple-system,BlinkMacSystemFont,'Segoe UI',sans-serif" font-size="13" fill="#8c8c8c">Total Issues:</text>
    <text x="260" y="148" font-family="-apple-system,BlinkMacSystemFont,'Segoe UI',sans-serif" font-size="13" font-weight="600" fill="#c8c8c8">9</text>

    <text x="32" y="172" font-family="-apple-system,BlinkMacSystemFont,'Segoe UI',sans-serif" font-size="13" fill="#8c8c8c">Contributed to (last year):</text>
    <text x="260" y="172" font-family="-apple-system,BlinkMacSystemFont,'Segoe UI',sans-serif" font-size="13" font-weight="600" fill="#c8c8c8">8</text>

    <circle cx="408" cy="112" r="38" fill="none" stroke="#212022" stroke-width="3"/>
    <circle cx="408" cy="112" r="38" fill="none" stroke="#91a1f1" stroke-width="3"
      stroke-dasharray="162.1 76.6"
      stroke-dashoffset="0"
      transform="rotate(-90 408 112)"/>
    <text x="408" y="118" font-family="-apple-system,BlinkMacSystemFont,'Segoe UI',sans-serif" font-size="18" font-weight="700" fill="#c8c8c8" text-anchor="middle">A+</text>

    <rect x="482" y="16" width="262" height="188" rx="8" fill="#1d1b1d" stroke="#212022" stroke-width="0.5"/>
    <text x="506" y="44" font-family="-apple-system,BlinkMacSystemFont,'Segoe UI',sans-serif" font-size="15" font-weight="600" fill="#91a1f1">Most Used Languages</text>
    
            <circle cx="506" cy="60" r="4" fill="#f34b7d"/>
            <text x="517" y="64" font-family="-apple-system,BlinkMacSystemFont,'Segoe UI',sans-serif" font-size="12" fill="#c8c8c8">C++ <tspan fill="#8c8c8c">45.8%</tspan></text>
        
            <circle cx="506" cy="82" r="4" fill="#555555"/>
            <text x="517" y="86" font-family="-apple-system,BlinkMacSystemFont,'Segoe UI',sans-serif" font-size="12" fill="#c8c8c8">C <tspan fill="#8c8c8c">40.0%</tspan></text>
        
            <circle cx="506" cy="104" r="4" fill="#f1e05a"/>
            <text x="517" y="108" font-family="-apple-system,BlinkMacSystemFont,'Segoe UI',sans-serif" font-size="12" fill="#c8c8c8">JavaScript <tspan fill="#8c8c8c">9.8%</tspan></text>
        
            <circle cx="506" cy="126" r="4" fill="#e34c26"/>
            <text x="517" y="130" font-family="-apple-system,BlinkMacSystemFont,'Segoe UI',sans-serif" font-size="12" fill="#c8c8c8">HTML <tspan fill="#8c8c8c">2.4%</tspan></text>
        
            <circle cx="506" cy="148" r="4" fill="#3178c6"/>
            <text x="517" y="152" font-family="-apple-system,BlinkMacSystemFont,'Segoe UI',sans-serif" font-size="12" fill="#c8c8c8">TypeScript <tspan fill="#8c8c8c">1.4%</tspan></text>
        
            <circle cx="506" cy="170" r="4" fill="#427819"/>
            <text x="517" y="174" font-family="-apple-system,BlinkMacSystemFont,'Segoe UI',sans-serif" font-size="12" fill="#c8c8c8">Makefile <tspan fill="#8c8c8c">0.6%</tspan></text>
        
    
            <circle cx="685" cy="119" r="34" fill="none"
            stroke="#f34b7d" stroke-width="10"
            stroke-dasharray="97.84 115.79"
            stroke-dashoffset="0.00"
            transform="rotate(-90 685 119)"/>
        

            <circle cx="685" cy="119" r="34" fill="none"
            stroke="#555555" stroke-width="10"
            stroke-dasharray="85.45 128.18"
            stroke-dashoffset="-97.84"
            transform="rotate(-90 685 119)"/>
        

            <circle cx="685" cy="119" r="34" fill="none"
            stroke="#f1e05a" stroke-width="10"
            stroke-dasharray="20.94 192.69"
            stroke-dashoffset="-183.29"
            transform="rotate(-90 685 119)"/>
        

            <circle cx="685" cy="119" r="34" fill="none"
            stroke="#e34c26" stroke-width="10"
            stroke-dasharray="5.13 208.50"
            stroke-dashoffset="-204.23"
            transform="rotate(-90 685 119)"/>
        

            <circle cx="685" cy="119" r="34" fill="none"
            stroke="#3178c6" stroke-width="10"
            stroke-dasharray="2.99 210.64"
            stroke-dashoffset="-209.36"
            transform="rotate(-90 685 119)"/>
        

            <circle cx="685" cy="119" r="34" fill="none"
            stroke="#427819" stroke-width="10"
            stroke-dasharray="1.28 212.35"
            stroke-dashoffset="-212.35"
            transform="rotate(-90 685 119)"/>
        
<circle cx="685" cy="119" r="20" fill="#1d1b1d"/>

    <rect x="16" y="220" width="728" height="220" rx="8" fill="#1d1b1d" stroke="#212022" stroke-width="0.5"/>

    <text x="137" y="293" font-family="-apple-system,BlinkMacSystemFont,'Segoe UI',sans-serif" font-size="25" font-weight="700" fill="#c8c8c8" text-anchor="middle">1,855</text>
    <text x="137" y="311" font-family="-apple-system,BlinkMacSystemFont,'Segoe UI',sans-serif" font-size="12" fill="#8c8c8c" text-anchor="middle">Total Contributions</text>
    <text x="137" y="324" font-family="-apple-system,BlinkMacSystemFont,'Segoe UI',sans-serif" font-size="11" fill="#8c8c8c" text-anchor="middle">Apr 30, 2024 - Present</text>

    <line x1="259" y1="232" x2="259" y2="372" stroke="#212022" stroke-width="0.5"/>
    <line x1="501" y1="232" x2="501" y2="372" stroke="#212022" stroke-width="0.5"/>

    <circle cx="380" cy="280" r="34" fill="none" stroke="#91a1f1" stroke-width="2.5" mask="url(#streak-ring-cut)"/>
    
    <g transform="translate(370 235) scale(0.8333333333333334)">
      <path d="M 19.48 12.35 c -1.57 -4.08 -7.16 -4.3 -5.81 -10.23 c .1 -.44 -.37 -.78 -.75 -.55 C 9.29 3.71 6.68 8 8.87 13.62 c .18 .46 -.36 .89 -.75 .59 c -1.81 -1.37 -2 -3.34 -1.84 -4.75 c .06 -.52 -.62 -.77 -.91 -.34 C 4.69 10.16 4 11.84 4 14.37 c .38 5.6 5.11 7.32 6.81 7.54 c 2.43 .31 5.06 -.14 6.95 -1.87 c 2.08 -1.93 2.84 -5.01 1.72 -7.69 z"
            fill="none" stroke="#91a1f1" stroke-width="3.00" stroke-linejoin="round" stroke-linecap="round"/>
    </g>
    <text x="380" y="289" font-family="-apple-system,BlinkMacSystemFont,'Segoe UI',sans-serif" font-size="25" font-weight="700" fill="#c8c8c8" text-anchor="middle">7</text>
    <text x="380" y="344" font-family="-apple-system,BlinkMacSystemFont,'Segoe UI',sans-serif" font-size="17" font-weight="700" fill="#91a1f1" text-anchor="middle">Current Streak</text>
    <text x="380" y="362" font-family="-apple-system,BlinkMacSystemFont,'Segoe UI',sans-serif" font-size="11" fill="#8c8c8c" text-anchor="middle">Sep 2 - Sep 8</text>

    <text x="621" y="293" font-family="-apple-system,BlinkMacSystemFont,'Segoe UI',sans-serif" font-size="25" font-weight="700" fill="#c8c8c8" text-anchor="middle">25</text>
    <text x="621" y="311" font-family="-apple-system,BlinkMacSystemFont,'Segoe UI',sans-serif" font-size="12" fill="#8c8c8c" text-anchor="middle">Longest Streak</text>

    
        <line x1="16" y1="390" x2="744" y2="390" stroke="#212022" stroke-width="0.5"/>
        <rect x="32" y="401" width="173" height="26" rx="4" fill="#1db95422"/>
        <circle cx="44" cy="415" r="4" fill="#1db954"/>
        <text x="56" y="420" font-family="-apple-system,BlinkMacSystemFont,'Segoe UI',sans-serif" font-size="12" font-weight="600" fill="#c8c8c8">Accelerator — Emmanuel</text>
    
  </svg>